<svg width="213" height="171" viewBox="0 0 213 171" fill="none" xmlns="http://www.w3.org/2000/svg">
<circle cx="108" cy="29" r="28" stroke="white" stroke-width="2"/>
<path d="M71.7263 170.507C67.393 137.341 68.5263 71.2072 107.726 72.0072C146.926 72.8072 147.726 138.007 143.226 170.507" stroke="white" stroke-width="3"/>
<path d="M204 36.5C204 47.8442 195.024 57 184 57C172.976 57 164 47.8442 164 36.5C164 25.1559 172.976 16 184 16C195.024 16 204 25.1559 204 36.5Z" stroke="white" stroke-width="2"/>
<path d="M157.264 141C154.091 116.421 154.921 67.4125 183.632 68.0053C212.343 68.5982 212.929 116.915 209.633 141" stroke="white" stroke-width="3"/>
<path d="M50 36.5C50 47.8442 41.0236 57 30 57C18.9764 57 10 47.8442 10 36.5C10 25.1559 18.9764 16 30 16C41.0236 16 50 25.1559 50 36.5Z" stroke="white" stroke-width="2"/>
<path d="M3.26439 141C0.0905492 116.421 0.92063 67.4125 29.6317 68.0053C58.3427 68.5982 58.9287 116.915 55.6328 141" stroke="white" stroke-width="3"/>
</svg>
