<svg width="243" height="243" viewBox="0 0 243 243" fill="none" xmlns="http://www.w3.org/2000/svg">
<path d="M181.557 119.858C181.557 155.567 154.487 184.176 121.5 184.176C88.5133 184.176 61.4431 155.567 61.4431 119.858C61.4431 84.1487 88.5133 55.5405 121.5 55.5405C154.487 55.5405 181.557 84.1487 181.557 119.858Z" stroke="black" stroke-width="6"/>
<path d="M206.165 119.448C206.165 169.892 167.905 210.446 121.115 210.446C74.3259 210.446 36.0664 169.892 36.0664 119.448C36.0664 69.0028 74.3259 28.4492 121.115 28.4492C167.905 28.4492 206.165 69.0028 206.165 119.448Z" stroke="black" stroke-width="6"/>
<path d="M121.5 0V94.4088" stroke="black" stroke-width="6"/>
<path d="M121.5 148.591V243" stroke="black" stroke-width="6"/>
<path d="M243 119.858L154.566 119.858" stroke="black" stroke-width="6"/>
<path d="M88.4336 119.858L4.76241e-05 119.858" stroke="black" stroke-width="6"/>
</svg>
