<svg width="243" height="240" viewBox="0 0 243 240" fill="none" xmlns="http://www.w3.org/2000/svg">
<path d="M169.632 22.5L120.199 50.5L150.379 98.5L199.291 71" stroke="black" stroke-width="5"/>
<path d="M203.974 76.5L168.071 17L191.486 4L227.91 63L203.974 76.5Z" stroke="black" stroke-width="5"/>
<path d="M0 236.5H243" stroke="black" stroke-width="5"/>
<path d="M57.7581 236.5L116.557 122.5" stroke="black" stroke-width="5"/>
<path d="M132.167 124.5L192.006 238" stroke="black" stroke-width="5"/>
<path d="M139.615 107.5C139.615 115.635 132.705 122.5 123.842 122.5C114.979 122.5 108.069 115.635 108.069 107.5C108.069 99.3646 114.979 92.5 123.842 92.5C132.705 92.5 139.615 99.3646 139.615 107.5Z" stroke="black" stroke-width="8"/>
<path d="M11.4475 122.5L28.0985 152L42.6681 143L24.4561 115L11.4475 122.5Z" stroke="black" stroke-width="5"/>
<path d="M30.1799 120L78.0515 93.5" stroke="black" stroke-width="5"/>
<path d="M41.1072 137L88.9787 111" stroke="black" stroke-width="5"/>
<path d="M123.841 58L74.4089 85.5L94.182 118L107.711 110.5" stroke="black" stroke-width="5"/>
<path d="M137.891 95.5L144.135 91.5" stroke="black" stroke-width="5"/>
</svg>
